<svg width="84" height="20" viewBox="0 0 84 20" fill="none" xmlns="http://www.w3.org/2000/svg">
<path d="M14.6354 0.836822L12.321 0.833008C9.72086 0.833008 8.04054 2.60392 8.04054 5.34487V7.42513H5.71352C5.51244 7.42513 5.34961 7.59259 5.34961 7.79915V10.8132C5.34961 11.0198 5.51263 11.187 5.71352 11.187H8.04054V18.7925C8.04054 18.9991 8.20337 19.1663 8.40445 19.1663H11.4405C11.6416 19.1663 11.8045 18.9989 11.8045 18.7925V11.187H14.5253C14.7264 11.187 14.8892 11.0198 14.8892 10.8132L14.8903 7.79915C14.8903 7.69997 14.8519 7.60499 14.7837 7.5348C14.7156 7.46461 14.6227 7.42513 14.5262 7.42513H11.8045V5.66166C11.8045 4.81407 12.0011 4.38379 13.0759 4.38379L14.635 4.38322C14.8359 4.38322 14.9987 4.21576 14.9987 4.00939V1.21065C14.9987 1.00447 14.8361 0.837204 14.6354 0.836822Z" fill="#787A80"/>
<path d="M50.75 4.8106C50.1059 5.08388 49.4148 5.26922 48.6887 5.35196C49.4301 4.92683 49.9976 4.25252 50.2666 3.45149C49.5711 3.84519 48.8035 4.13106 47.9855 4.28603C47.3305 3.61695 46.3988 3.2002 45.3653 3.2002C43.3827 3.2002 41.7752 4.73942 41.7752 6.63674C41.7752 6.90583 41.8069 7.16865 41.8682 7.41997C38.885 7.2765 36.2397 5.90797 34.4693 3.82843C34.1598 4.33523 33.9837 4.92576 33.9837 5.55613C33.9837 6.74878 34.618 7.8011 35.5803 8.41677C34.992 8.39793 34.4387 8.24296 33.9542 7.98537V8.0283C33.9542 9.69317 35.1921 11.0826 36.8335 11.3989C36.5328 11.4764 36.2157 11.5193 35.8876 11.5193C35.6558 11.5193 35.4316 11.4973 35.2118 11.4554C35.6689 12.8219 36.9943 13.8156 38.5646 13.8428C37.3366 14.7642 35.7881 15.3119 34.1062 15.3119C33.8165 15.3119 33.531 15.2951 33.25 15.2647C34.8389 16.2417 36.7253 16.8113 38.7527 16.8113C45.3566 16.8113 48.9665 11.5738 48.9665 7.0315L48.9544 6.5865C49.6597 6.1048 50.2699 5.49959 50.75 4.8106Z" fill="#787A80"/>
<path d="M82.3295 18.3337L82.3337 18.333V12.2205C82.3337 9.23019 81.6899 6.92671 78.1941 6.92671C76.5135 6.92671 75.3857 7.84894 74.9253 8.72324H74.8767V7.20588H71.5621V18.333H75.0135V12.8232C75.0135 11.3726 75.2885 9.96977 77.085 9.96977C78.8552 9.96977 78.8816 11.6253 78.8816 12.9163V18.3337H82.3295Z" fill="#787A80"/>
<path d="M65.942 7.20657H69.3975V18.3337H65.942V7.20657Z" fill="#787A80"/>
<path d="M67.6684 1.66699C66.5635 1.66699 65.667 2.56352 65.667 3.66838C65.667 4.77324 66.5635 5.68852 67.6684 5.68852C68.7732 5.68852 69.6698 4.77324 69.6698 3.66838C69.6691 2.56352 68.7725 1.66699 67.6684 1.66699Z" fill="#787A80"/>
</svg>
